<svg
      className="text-[var(--foreground)] "
        xmlns="http://www.w3.org/2000/svg"
        viewBox="0 0 24 24"
        fill="currentColor"
        width="24"
        height="24"
      >
        <path d="M7.75 2C4.57 2 2 4.57 2 7.75v8.5C2 19.43 4.57 22 7.75 22h8.5C19.43 22 22 19.43 22 16.25v-8.5C22 4.57 19.43 2 16.25 2h-8.5zm0 1.5h8.5c2.35 0 4.25 1.9 4.25 4.25v8.5c0 2.35-1.9 4.25-4.25 4.25h-8.5c-2.35 0-4.25-1.9-4.25-4.25v-8.5c0-2.35 1.9-4.25 4.25-4.25z" />
        <path d="M12 7a5 5 0 100 10 5 5 0 000-10zm0 1.5a3.5 3.5 0 110 7 3.5 3.5 0 010-7z" />
        <circle cx="17.5" cy="6.5" r="1" />
      </svg>