<svg xmlns="http://www.w3.org/2000/svg" viewBox="0 0 256 154" fill="currentColor">
  <path d="M128 0C93.9 0 72.5 17.1 64 51.2c12.8-17.1 27.7-23.5 44.8-19.2 9.8 2.4 16.8 9.5 24.5 17.2 12.5 12.5 27 27 58.7 27 34.1 0 55.5-17.1 64-51.2-12.8 17.1-27.7 23.5-44.8 19.2-9.8-2.4-16.8-9.5-24.5-17.2C174.2 14.5 159.7 0 128 0zM64 76.8C29.9 76.8 8.5 93.9 0 128c12.8-17.1 27.7-23.5 44.8-19.2 9.8 2.4 16.8 9.5 24.5 17.2 12.5 12.5 27 27 58.7 27 34.1 0 55.5-17.1 64-51.2-12.8 17.1-27.7 23.5-44.8 19.2-9.8-2.4-16.8-9.5-24.5-17.2C110.2 91.3 95.7 76.8 64 76.8z"/>
</svg>
